<svg xmlns="http://www.w3.org/2000/svg" xmlns:xlink="http://www.w3.org/1999/xlink" viewBox="0 0 1401 839.84">
  <defs>
    <style>
      #nuvem-1 {
        animation: movimento-nuvem-esq 60s ease-in-out infinite alternate;
      }

      #nuvem-2 {
        animation: movimento-nuvem-dir 60s ease-in-out infinite alternate;
      }

      @keyframes movimento-nuvem-esq {
        to {
          transform: translate(-400px)
        }
      }

      @keyframes movimento-nuvem-dir {
        to {
          transform: translate(400px)
        }
      }
    </style>
    <linearGradient id="linear-gradient" x1="1257.55" y1="756.2" x2="1257.55" y2="45.85" gradientTransform="matrix(-1, 0, 0, 1, 1958, -180.4)" gradientUnits="userSpaceOnUse">
      <stop offset="0.15" stop-color="#99d5e2"/>
      <stop offset="0.77" stop-color="#79c8d7"/>
    </linearGradient>
    <linearGradient id="linear-gradient-2" x1="1258" y1="838.45" x2="1258" y2="507.58" gradientTransform="matrix(-1, 0, 0, 1, 1958, -180.4)" gradientUnits="userSpaceOnUse">
      <stop offset="0.15" stop-color="#65c4ce"/>
      <stop offset="0.77" stop-color="#3ab7cd"/>
    </linearGradient>
    <linearGradient id="linear-gradient-3" x1="1258" y1="890.84" x2="1258" y2="682.06" gradientTransform="matrix(-1, 0, 0, 1, 1958, -180.4)" gradientUnits="userSpaceOnUse">
      <stop offset="0.15" stop-color="#3ec0c5"/>
      <stop offset="0.77" stop-color="#25b1c2"/>
    </linearGradient>
    <linearGradient id="linear-gradient-4" x1="1258" y1="1018.62" x2="1258" y2="877.16" gradientTransform="matrix(-1, 0, 0, 1, 1958, -180.4)" gradientUnits="userSpaceOnUse">
      <stop offset="0.15" stop-color="#00b8c4"/>
      <stop offset="0.77" stop-color="#00a9b2"/>
    </linearGradient>
  </defs>
  <title>praia-footer</title>
  <g id="mar">
    <g id="onda">
      <path d="M167.4,316.2c94.5-44,145.5-27.5,207,0s90,33,126,26.6,40.5-17,109.5,11.8,168,63.2,295.5,13.7,186-19.2,312,23.4S1400,380.9,1400,380.9V177.5s-42.5,66.7-120.5,38.7-86.8-78.9-124.3-74.8-53.2,14.1-74.2-18.9S1018.9,18.9,948.4,35.3,874,89.5,841,81.2s-48.8,13.6-81.8,46.5-117.7,58.9-201.7,1.4-82.4-78-130.4-65.6-46,38.5-85.6-7.7c-23.3-27.2-85.9-63-138.4-14.9s-46.3,94.4-85.3,94S31.1,132,1.1,177.4V360.6C66.6,370.2,73.4,360,167.4,316.2Z" transform="translate(0.5 -17.26)" style="fill: #f8f3eb"/>
    </g>
    <g id="mar-2" data-name="mar">
      <path d="M167.4,343.6c94.5-44,145.5-27.5,207,0s90,33,126,26.6,40.5-17,109.5,11.8,168,63.2,295.5,13.7,186-19.2,312,23.4S1400,408.2,1400,408.2V204.8s-46.1,43.7-124.1,15.6-87-36.3-124.5-32.1-49.5-5.5-70.5-38.5-60-79.7-130.5-63.2-76.5,30.2-109.5,22-49.5-1.4-82.5,31.6-117,73.8-201,16.3-87-57.5-135-45.2-52.5-5.5-81-28.2-78-41.9-130.5,6.2-64.5,55.6-103.5,55.3S30.9,159.4.9,204.7V388C66.6,397.6,73.4,387.3,167.4,343.6Z" transform="translate(0.5 -17.26)" style="fill: url(#linear-gradient)"/>
      <path d="M0,607.4v-38c52-58.6,132-89.8,191-81.5s61,17.4,118,13.7,71,53.1,130,40.3,40-4.6,143,24.7,184,7.3,247-19.2,128,8.2,170,33.9,98,51.3,145,38.5,48-11,123,2.7,133-45.7,133-45.7V408.3s-56.6,53.5-182.6,10.9-184.5-72.8-312-23.4-226.5,15.1-295.5-13.7-73.5-18.2-109.5-11.8-64.5.9-126-26.6-112.5-44-207,0S66.5,397.8,0,387.9V607.4Z" transform="translate(0.5 -17.26)" style="fill: url(#linear-gradient-2)"/>
      <path d="M167.4,398.7c94.5-44,145.5-27.5,207,0s90,33,126,26.6,40.5-17,109.5,11.8,168,63.2,295.5,13.7,186-19.2,312,23.4S1400,463.4,1400,463.4V408.3s-56.6,53.5-182.6,10.9-184.5-72.8-312-23.4-226.5,15.1-295.5-13.7-73.5-18.2-109.5-11.8-64.5.9-126-26.6-112.5-44-207,0S66.5,397.8,0,387.9V443C66.6,452.9,72.9,442.7,167.4,398.7Z" transform="translate(0.5 -17.26)" style="fill: #eae5da;opacity: 0.300000011920929;isolation: isolate"/>
      <path d="M110,676.6c77-20.2,116,29.3,195,22.9s104,.9,149,19.3,93,43.1,189,44.9,141-63.2,219-64.1,73,35.7,137,28.4,99,48.5,209,70.5,192-34.8,192-34.8V576.8s-58,59.5-133,45.8-76-15.6-123-2.7-103-12.8-145-38.5-107-60.5-170-33.9S685,596,582,566.7,498,529.1,439,542s-73-44-130-40.3-59-5.5-118-13.7S52,510.9,0,569.5V754.1C12.7,738.9,46.3,693.3,110,676.6Z" transform="translate(0.5 -17.26)" style="fill: url(#linear-gradient-3)"/>
      <path d="M.5,753.5V659c52-58.6,132-89.8,191-81.5s61,17.4,118,13.7,71,53.1,130,40.3,40-4.6,143,24.7,184,7.3,247-19.2,128,8.2,170,33.9,98,51.3,145,38.5,48-11,123,2.7c71.1,13.1,126.9-39.8,132.5-45.3v-90s-58,59.5-133,45.8-76-15.6-123-2.7-103-12.8-145-38.5-107-60.5-170-33.9S685,596,582,566.7,498,529.1,439,542s-73-44-130-40.3-59-5.5-118-13.7S52,510.9,0,569.5V754.1A2.65,2.65,0,0,1,.5,753.5Z" transform="translate(0.5 -17.26)" style="fill: #eae5da;opacity: 0.200000002980232;isolation: isolate"/>
      <path d="M1400,748.6s-68,67.3-178,45.3-159-88.4-223-81.1-59-42-137-41-123,86.4-219,84.6-144-51.3-189-69.6-69,1.8-148,8.2-120-62.3-197-42.1S0,744,0,744v98H1400Z" transform="translate(0.5 -17.26)" style="fill: #eae5da;opacity: 0.5;isolation: isolate"/>
      <path d="M1400,763.7s-82,56.8-192,34.8S1063,720.6,999,728s-59-29.3-137-28.4-123,66-219,64.1-144-26.6-189-44.9-70-25.7-149-19.3-118-43-195-22.9S0,759.1,0,759.1v98H1400Z" transform="translate(0.5 -17.26)" style="fill: url(#linear-gradient-4)"/>
      <g>
        <path d="M110,676.6C33,696.8,0,759,0,759v8.4c38-30.1,98-38.1,171-3,97,46.6,92,33.1,172,0s166-11.8,274,31.3,202,1.8,339-38.5c58.5-17.2,102.4-12,143.1,1.6-36.7-18.8-63.7-35.1-100.1-30.9-64,7.3-59-29.3-137-28.4s-123,66-219,64.1S499,737,454,718.7,384,693,305,699.4C226,706,187,656.5,110,676.6Z" transform="translate(0.5 -17.26)" style="fill: none;stroke: #eae5da;stroke-miterlimit: 10"/>
        <path d="M1208,798.5a350.69,350.69,0,0,1-39-10c31,14.3,64,28.8,104,37.5,123,26.5,127-15.6,127-15.6V763.7S1318,820.5,1208,798.5Z" transform="translate(0.5 -17.26)" style="fill: none;stroke: #eae5da;stroke-miterlimit: 10"/>
      </g>
      <path d="M0,786.6c14.2-12.4,32.2-21.1,52.4-25.2,35.8-7.3,76.4-.4,120.4,20.8,48.9,23.4,72.8,33.6,96.6,32.8,24.3-.9,47.5-13.1,93.6-37.5l6.3-3.3c80-42.3,141.7-8.9,213.1,29.7,14.9,8.1,30.3,16.4,46.4,24.3,43.3,21.3,75.4,28.1,110.8,23.2,34.6-4.7,72.1-20.8,124.1-43.1,6.6-2.8,13.4-5.7,20.5-8.8,64-27.2,105.1-36.7,146.5-33.7,44.9,3.3,92.7,21.7,160.1,52.3,71.9,32.7,128,37.6,162.4,35.9,21.3-1,37.1-4.6,46.8-7.6v-1c-9.6,3-25.5,6.7-47,7.7-62,3-122.2-17.8-161.8-35.8-67.5-30.7-115.4-49.1-160.4-52.3-4.9-.3-9.7-.5-14.6-.5-37,0-75.8,10.2-132.4,34.3-7.1,3-13.9,5.9-20.5,8.8-51.9,22.2-89.4,38.3-123.8,43-35.2,4.8-67.1-1.9-110.2-23.1-16.1-7.9-31.5-16.2-46.4-24.3-48-26-91.6-49.6-139.3-49.6-23.6,0-48.2,5.8-74.8,19.8l-6.3,3.3c-91.1,48.2-94.6,50.1-189.2,4.7-44.3-21.2-85-28.2-121.1-20.9-20,4.1-37.9,12.7-52.1,24.9L0,786.6Z" transform="translate(0.5 -17.26)" style="fill: #eae5da"/>
      <g>
        <path d="M1400,662a252.44,252.44,0,0,1-40.9,19.8,260.32,260.32,0,0,1-88.8,16.4c-38.5.4-78.6-7.3-119.1-22.9-46.7-18-84-36.5-116.9-52.9-46.8-23.2-83.7-41.6-125.5-47.9a203.62,203.62,0,0,0-31.4-2.4c-35.7,0-74.2,9-120.6,27.7-89.1,36.1-135.9,49.3-172.7,48.6-37.5-.6-64.7-16.6-105.9-40.9-10.9-6.4-20.7-12.4-29.3-17.7-28.9-17.6-48-29.3-69-33.4-20.6-4-43.6-1-82.1,10.7-18.5,5.6-33.3,11.1-46.4,15.8-47.3,17.3-66.9,24.4-130.2-8.5-41.9-21.8-80.9-8.1-106.3,7.2a178.3,178.3,0,0,0-15,10.2v1.3a174.63,174.63,0,0,1,15.5-10.6c16-9.7,32.1-15.6,47.9-17.6,19.7-2.6,39,1,57.3,10.5,63.7,33.1,83.4,25.9,131.1,8.5,13.1-4.8,27.9-10.2,46.4-15.8,38.3-11.7,61.2-14.7,81.6-10.7,20.8,4.1,39.9,15.7,68.7,33.3,8.6,5.3,18.4,11.2,29.3,17.7,83.6,49.2,106.1,62.5,279.5-7.7,127.4-51.5,183.6-23.7,276.6,22.5,33,16.4,70.3,34.9,117,52.9,40.7,15.7,80.9,23.4,119.5,23a259.72,259.72,0,0,0,89.1-16.5,241.21,241.21,0,0,0,40.6-19.5V662Z" transform="translate(0.5 -17.26)" style="fill: #eae5da"/>
        <path d="M1400,612a252.44,252.44,0,0,1-40.9,19.8,260.32,260.32,0,0,1-88.8,16.4c-38.5.4-78.6-7.3-119.1-22.9-46.7-18-84-36.5-116.9-52.9-46.8-23.2-83.7-41.6-125.5-47.9a203.62,203.62,0,0,0-31.4-2.4c-35.7,0-74.2,9-120.6,27.7-89.1,36.1-135.9,49.3-172.7,48.6-37.5-.6-64.7-16.6-105.9-40.9-10.9-6.4-20.7-12.4-29.3-17.7-28.9-17.6-48-29.3-69-33.4-20.6-4-43.6-1-82.1,10.7-18.5,5.6-33.3,11.1-46.4,15.8-47.3,17.3-66.9,24.4-130.2-8.5-41.9-21.8-80.9-8.1-106.3,7.2a178.3,178.3,0,0,0-15,10.2v1.3a174.63,174.63,0,0,1,15.5-10.6c16-9.7,32.1-15.6,47.9-17.6,19.7-2.6,39,1,57.3,10.5,63.7,33.1,83.4,25.9,131.1,8.5,13.1-4.8,27.9-10.2,46.4-15.8,38.3-11.7,61.2-14.7,81.6-10.7,20.8,4.1,39.9,15.7,68.7,33.3,8.6,5.3,18.4,11.2,29.3,17.7,83.6,49.2,106.1,62.5,279.5-7.7,127.4-51.5,183.6-23.7,276.6,22.5,33,16.4,70.3,34.9,117,52.9,40.7,15.7,80.9,23.4,119.5,23a259.72,259.72,0,0,0,89.1-16.5,241.21,241.21,0,0,0,40.6-19.5V612Z" transform="translate(0.5 -17.26)" style="fill: #eae5da"/>
      </g>
      <g>
        <path d="M0,414.7v1.2A61,61,0,0,0,31.4,429c21.1,2.6,43.5-4.8,61.4-20.5,12-10.5,36.8-29.2,69-37.7,31.5-8.3,61.1-4.3,87.9,11.8,5.6,3.4,10.8,6.6,15.8,9.6,23.4,14.4,40.3,24.8,61,27.6,21.2,2.8,46-2,85.6-16.8,88.1-32.8,121.1-22,236.5,43,98.2,55.3,169.1,24,258.8-15.6,16.2-7.2,32.9-14.6,50.7-21.8,55.9-23,91.5-29.7,127-24s70.9,24.1,124.3,52c5.9,3.1,11.9,6.2,18.2,9.5,34.9,18.1,87.1,37,137.6,23.8a118.35,118.35,0,0,0,34.7-15.1v-1.1a117.8,117.8,0,0,1-35,15.4c-50.2,13.1-102.2-5.7-136.9-23.7-6.3-3.3-12.4-6.5-18.2-9.5-53.5-27.9-88.9-46.4-124.6-52.1s-71.4,1.1-127.5,24.1c-17.7,7.3-34.5,14.7-50.7,21.8-45.7,20.2-85.2,37.7-126.2,43.5-44.9,6.4-86.7-2.5-131.7-27.8-74-41.7-114.3-61.2-156.8-61.2-24,0-48.7,6.2-80.6,18.1-39.5,14.7-64.1,19.6-85.1,16.7-20.5-2.8-37.3-13.1-60.6-27.4-5-3.1-10.2-6.3-15.8-9.6a109.71,109.71,0,0,0-57.1-16.1,125.46,125.46,0,0,0-31.6,4.2c-32.4,8.5-57.4,27.4-69.4,37.9-17.7,15.4-39.7,22.8-60.6,20.2A61,61,0,0,1,0,414.7Z" transform="translate(0.5 -17.26)" style="fill: #eae5da"/>
        <path d="M1400,513.4c-31.6,14.2-65.3,15.1-102.7,2.8-37.2-12.2-74.6-36-110.7-59.1-15.9-10.1-32.3-20.6-48.4-29.9-81.5-47.1-116.2-27.5-208.7,25-10.1,5.7-20.5,11.6-31.8,17.9C846,498.9,789.8,507,730.6,494c-53.1-11.6-98.8-38.4-127.9-58.8-35.3-24.8-60.3-35.6-86.1-37.2-27.3-1.6-56.9,7.1-98.9,29.1-37.5,19.7-70.4,25.9-103.6,19.7-30.7-5.8-58.8-21.2-91.3-39.1-63.4-34.8-95.5-12.6-148.5,24.2l-4.6,3.2c-19.5,13.5-37.5,19-53.7,16.4a44.9,44.9,0,0,1-16-5.8v1.1a46.51,46.51,0,0,0,15.8,5.6c16.4,2.7,34.8-2.9,54.5-16.5l4.6-3.2c52.7-36.6,84.5-58.7,147.4-24.2,32.6,17.9,60.8,33.4,91.6,39.2,33.5,6.3,66.6,0,104.3-19.8,41.9-22,71.3-30.6,98.4-29,25.6,1.5,50.4,12.3,85.6,37,52.7,37.1,98.8,52.5,128.2,59,59.4,13,115.8,4.9,167.8-24,11.4-6.3,21.8-12.2,31.8-17.9,92.2-52.2,126.6-71.8,207.6-25,16.2,9.3,32.6,19.8,48.4,29.9,36.2,23.1,73.6,46.9,110.9,59.2,37.5,12.3,71.4,11.4,103.1-2.7Z" transform="translate(0.5 -17.26)" style="fill: #eae5da"/>
      </g>
      <g>
        <path d="M.9,216.1c22.4-4.9,45.4-4.7,64.4-2.9,114.6,11,134.9-8.8,171.6-44.8,3.7-3.6,7.6-7.4,11.8-11.4,20.3-19.2,37.7-27.9,56.4-28.1h.8c26.4,0,56.2,16.7,99.6,55.6,35.7,32.1,64.7,50.6,88.5,56.8,20.6,5.3,38.3,1.7,55.8-11.4,15.7-11.8,31.3-16,52.2-14.2,19,1.7,43.4,8.6,84.2,23.8,34,12.7,62.8,12.1,90.6-2.1,25-12.7,46-34.6,69-59.9,24.1-26.5,52.4-40.8,79.6-40.1,21.8.6,41.1,10.6,56.1,29,19.5,24.1,36.5,42.7,55.8,55.2,23,14.9,46.1,18.4,70.8,10.9l4-1.2c51.3-15.7,88.3-27.1,189,45.1,23.7,17,47.4,28,70.6,32.7a131.15,131.15,0,0,0,28.4,2.6v-.9a129.35,129.35,0,0,1-28.2-2.6c-23-4.7-46.6-15.6-70.1-32.5-61.3-43.9-99.1-57-130.9-57-20.7,0-38.8,5.6-59.1,11.8l-4,1.2c-24.3,7.4-47.2,3.9-69.9-10.8-19.2-12.4-36.1-31-55.6-55-15.1-18.7-34.8-28.8-56.9-29.4-27.5-.7-56.1,13.6-80.4,40.4-22.9,25.2-43.9,47-68.7,59.7-27.5,14-56,14.7-89.8,2-40.8-15.3-65.3-22.2-84.5-23.9-21.1-1.9-37,2.4-52.9,14.4-17.2,12.9-34.6,16.5-54.9,11.2-23.6-6.1-52.4-24.6-88-56.6-43.6-39.1-73.6-55.9-100.3-55.9h-.8c-19,.2-36.6,9-57.1,28.4-4.2,3.9-8,7.7-11.8,11.4-36.6,35.8-56.7,55.5-170.8,44.5-23.9-2.3-45.6-1.3-64.5,2.8v1.2Z" transform="translate(0.5 -17.26)" style="fill: #eae5da"/>
        <path d="M1400,361.2c-10.2,2.4-19-1.2-35.9-11.1a447,447,0,0,0-47.5-24.8c-26.1-11.7-41.9-22.2-54.6-30.6-24.1-16-35.2-23.4-80.8-13.4l-1.8.4c-68,14.9-96.1,21.1-167.3-34.5-33-25.7-66-38-98-36.5a102.17,102.17,0,0,0-67.7,29.5c-35,35.1-80.6,43.3-128.4,23-25.4-10.7-46.7-18.3-68-20.1s-42.9,1.9-70.4,12.1c-8.9,3.3-16.7,6.8-24.3,10.2-39.5,17.6-65.5,29.2-144.7-30.7-42.4-32-72.5-44.2-98.2-44.2-29.8,0-53.8,16.4-84.2,37.2-2,1.4-4.1,2.8-6.2,4.2-40.2,27.4-65.9,23.2-104.9,16.8-19.4-3.2-41.4-6.8-69.8-7.3A127,127,0,0,0,.8,249.1v1a124.46,124.46,0,0,1,46.5-7.8c28.4.5,50.3,4.1,69.7,7.2,39.2,6.4,65.1,10.7,105.7-16.9,2.1-1.4,4.2-2.8,6.2-4.2,56.3-38.5,90.2-61.8,181.1,7,79.7,60.2,106,48.5,145.8,30.8,7.6-3.4,15.4-6.9,24.2-10.1,57-21.2,87-13.4,137.6,8,48.3,20.4,94.3,12.2,129.6-23.2a100.14,100.14,0,0,1,67-29.2c31.8-1.5,64.5,10.8,97.3,36.3,71.6,55.8,99.8,49.6,168.2,34.7l1.8-.4c45.2-9.9,56.1-2.6,79.9,13.2,12.7,8.4,28.5,18.9,54.7,30.7a477.78,477.78,0,0,1,47.4,24.7c16.3,9.6,24.3,14.2,36.5,11v-.7Z" transform="translate(0.5 -17.26)" style="fill: #eae5da"/>
      </g>
    </g>
  </g>
  <g id="nuvens">
    <g id="nuvens-2" data-name="nuvens">
      <g id="nuvem-1">
        <path d="M342.9,625.3a20.5,20.5,0,0,0-14.1,5.6,31.59,31.59,0,0,0-36.7-7.9,37.42,37.42,0,0,0-66.1,2.9,24.54,24.54,0,0,0-17,13.8,21.86,21.86,0,0,0-3.6-.3,19.5,19.5,0,1,0,0,39,19.15,19.15,0,0,0,14.9-7,23.79,23.79,0,0,0,11,2.6,22.25,22.25,0,0,0,7.7-1.3,37.16,37.16,0,0,0,20.9,6.4,36.67,36.67,0,0,0,21.3-6.7,31.52,31.52,0,0,0,52.9-8.1,19.83,19.83,0,0,0,8.7,2,20.5,20.5,0,0,0,.1-41Z" transform="translate(0.5 -17.26)" style="fill: #4b7cab;opacity: 0.200000002980232;isolation: isolate"/>
        <path d="M387.1,553.1a30.82,30.82,0,0,0-21.2,8.4,48,48,0,0,0-55.6-12,56.47,56.47,0,0,0-99.8,4.3,36.81,36.81,0,0,0-25.7,20.9,33.08,33.08,0,0,0-5.5-.5,29.5,29.5,0,1,0,22.6,48.4,36.65,36.65,0,0,0,28.1,2,56.43,56.43,0,0,0,63.7-.5,47.91,47.91,0,0,0,80.2-12.2,30.72,30.72,0,0,0,13.2,2.9,30.85,30.85,0,1,0,0-61.7Z" transform="translate(0.5 -17.26)" style="fill: #f7ede4"/>
      </g>
      <g id="nuvem-2">
        <path d="M1094.8,738.3a21.26,21.26,0,0,0-14.6,5.8,32.73,32.73,0,0,0-24.6-11.1,32.07,32.07,0,0,0-13.5,2.9,38.67,38.67,0,0,0-68.4,3,25.06,25.06,0,0,0-17.6,14.3,23.28,23.28,0,0,0-3.8-.4A20.2,20.2,0,1,0,967.8,786a24.86,24.86,0,0,0,19.2,1.4,38.27,38.27,0,0,0,21.6,6.6,39.12,39.12,0,0,0,22.1-6.9,32.74,32.74,0,0,0,54.9-8.4,20.82,20.82,0,0,0,9,2,21.32,21.32,0,0,0,21.3-21.3A21,21,0,0,0,1094.8,738.3Z" transform="translate(0.5 -17.26)" style="fill: #4b7cab;opacity: 0.200000002980232;isolation: isolate"/>
        <path d="M1149.2,668.6A31,31,0,0,0,1128,677a47.7,47.7,0,0,0-55.3-11.9,56.23,56.23,0,0,0-99.4,4.5,36.55,36.55,0,0,0-25.5,20.8,33.08,33.08,0,0,0-5.5-.5,29.4,29.4,0,1,0,22.5,48.4,36.65,36.65,0,0,0,28.1,2,56.26,56.26,0,0,0,63.3-.5,47.64,47.64,0,0,0,79.9-12.2,30.28,30.28,0,0,0,13.1,2.9,31,31,0,0,0,0-61.9Z" transform="translate(0.5 -17.26)" style="fill: #f7ede4"/>
      </g>
    </g>
  </g>
</svg>
