<svg id="coqueiro" xmlns="http://www.w3.org/2000/svg" viewBox="0 0 504.74 565.85"><title>coqueiro</title><g id="_Group_" data-name="&lt;Group&gt;"><path id="_Path_" data-name="&lt;Path&gt;" d="M265,170.35S367.54,7.18,499,137.48C499,137.48,345.63,117.92,265,170.35Z" transform="translate(-2.48 -4.85)" fill="#6dbe45"/><path id="_Path_2" data-name="&lt;Path&gt;" d="M269,164.61c-.62.87-1.18,1.66-1.66,2.35.08.44.18,1,.31,1.77C348.85,118.34,499,137.48,499,137.48l-1.82-1.78c-2.14-1-4.31-2.12-6.61-3.07C379.66,86.85,283,153.25,269,164.61Z" transform="translate(-2.48 -4.85)" fill="#fff"/><path id="_Path_3" data-name="&lt;Path&gt;" d="M260.72,176.22S98.13,190.9,55.28,255.46C55.28,255.46,94,87.4,260.72,176.22Z" transform="translate(-2.48 -4.85)" fill="#6dbe45"/><path id="_Path_4" data-name="&lt;Path&gt;" d="M257.19,170.35S212.59-19.82,10.68,85.83C10.68,85.83,170.33,84.66,257.19,170.35Z" transform="translate(-2.48 -4.85)" fill="#6dbe45"/><path id="_Path_5" data-name="&lt;Path&gt;" d="M260.72,176.22s201.9-51.65,190.17,160.83C450.89,337.05,387.1,201.66,260.72,176.22Z" transform="translate(-2.48 -4.85)" fill="#6dbe45"/><path id="_Path_6" data-name="&lt;Path&gt;" d="M299,179.33c-25.7.66-38.31-3.11-38.31-3.11C387.1,201.66,450.89,337.05,450.89,337.05c.52-9.59-6.7-23.46-7-32C428.7,277.55,392.87,195.27,299,179.33Z" transform="translate(-2.48 -4.85)" fill="#fff"/><path id="_Path_7" data-name="&lt;Path&gt;" d="M257.19,170.35S214.93,32.62,364.41,13.05C364.41,13.05,280.67,68.62,257.19,170.35Z" transform="translate(-2.48 -4.85)" fill="#6dbe45"/><path id="_Path_8" data-name="&lt;Path&gt;" d="M257.19,170.35S127,344.17,127,562.51h78.54S167.29,464.89,257.19,170.35Z" transform="translate(-2.48 -4.85)" fill="#f68e49"/><path id="_Path_9" data-name="&lt;Path&gt;" d="M257.19,170.35s-3.71,5-9.88,14.25c-94.84,239.66-66.95,377.91-66.95,377.91h25.18S167.29,464.89,257.19,170.35Z" transform="translate(-2.48 -4.85)" fill="#fff"/><path id="_Compound_Path_" data-name="&lt;Compound Path&gt;" d="M55.28,263.66a8,8,0,0,1-3.23-.67,8.18,8.18,0,0,1-4.75-9.37c.69-3,17.76-74.43,77.18-101.49,38.81-17.67,85.94-12,140.09,16.86a8.2,8.2,0,0,1-3.12,15.4c-1.58.14-159.16,15.07-199.33,75.6A8.21,8.21,0,0,1,55.28,263.66ZM172.16,158.51a97.46,97.46,0,0,0-40.88,8.55c-27.2,12.38-44.49,36.23-54.83,56.3C121,192.1,192.33,177.57,231.74,171.61Q199.58,158.53,172.16,158.51Z" transform="translate(-2.48 -4.85)" fill="#4a4742"/><path id="_Compound_Path_2" data-name="&lt;Compound Path&gt;" d="M257.2,178.55a8.23,8.23,0,0,1-5.77-2.36C168,93.84,12.29,94.06,10.74,94A8.19,8.19,0,0,1,6.88,78.57c67.3-35.22,125.16-42.22,172-20.81,66.87,30.6,85.58,107.46,86.35,110.72a8.2,8.2,0,0,1-8,10.07ZM43.91,79.31A525.18,525.18,0,0,1,103,87.93c39.63,8.13,92.42,24.27,135.72,56-10.91-23.36-31.48-55.21-66.84-71.34C136.71,56.57,93.76,58.84,43.91,79.31Z" transform="translate(-2.48 -4.85)" fill="#4a4742"/><path id="_Compound_Path_3" data-name="&lt;Compound Path&gt;" d="M265,178.55A8.19,8.19,0,0,1,258.08,166c2-3.18,49.73-77.9,123.68-86.4,41.91-4.8,83.3,12.7,123,52.07a8.2,8.2,0,0,1-6.81,14c-1.51-.19-151.37-18.56-228.49,31.61A8.17,8.17,0,0,1,265,178.55ZM395.18,95.22a101.33,101.33,0,0,0-11.54.66c-38.26,4.4-69.43,29.79-89,50.58,61.78-23.56,140.79-22.11,180.49-19.4C448.7,105.89,421.92,95.22,395.18,95.22Z" transform="translate(-2.48 -4.85)" fill="#4a4742"/><path id="_Compound_Path_4" data-name="&lt;Compound Path&gt;" d="M450.88,345.24a8.2,8.2,0,0,1-7.41-4.7c-.16-.33-16-33.59-46.8-69.38-28.07-32.66-74.73-74.25-137.57-86.9a8.2,8.2,0,0,1-.42-16A231.18,231.18,0,0,1,311,162.5h1.07c40.08.18,74.23,10.94,98.77,31.1,35.67,29.3,51.91,77.72,48.25,143.9a8.19,8.19,0,0,1-6.61,7.59A7.75,7.75,0,0,1,450.88,345.24Zm-151.4-166c39.76,15.73,77.23,43.45,109.94,81.6a388.61,388.61,0,0,1,33.42,45.34c-2.32-45.1-16.54-78.63-42.43-99.9C369.93,181.23,328.81,177.71,299.48,179.23Z" transform="translate(-2.48 -4.85)" fill="#4a4742"/><path id="_Compound_Path_5" data-name="&lt;Compound Path&gt;" d="M257.19,178.55a8.2,8.2,0,0,1-7.84-5.79c-.78-2.57-19-63.57,12.52-112.53,19.58-30.45,53.72-49.06,101.47-55.31a8.2,8.2,0,0,1,5.6,15c-.8.54-81.33,55.13-103.76,152.32a8.2,8.2,0,0,1-7.7,6.35ZM332.78,28.27C307,36.5,287.89,50.13,275.72,69c-13.54,21-16.34,45.28-15.7,64.53C279.16,84.55,310.33,49.14,332.78,28.27Z" transform="translate(-2.48 -4.85)" fill="#4a4742"/><path id="_Compound_Path_6" data-name="&lt;Compound Path&gt;" d="M205.54,570.71H127a8.21,8.21,0,0,1-8.2-8.2c0-114.27,35.81-216.09,65.85-281.38,32.54-70.73,64.63-113.89,66-115.69A8.2,8.2,0,0,1,265,172.75C239.79,255.45,209,375,205.91,475c-1.87,59.75,7.19,84.36,7.28,84.6a8.23,8.23,0,0,1-7.65,11.16Zm-70.27-16.4h59.5C188,523.77,177,427.77,233.51,222.48c-10.32,17.77-22.26,40-34.15,65.9C170.82,350.53,136.92,446.5,135.27,554.31Z" transform="translate(-2.48 -4.85)" fill="#4a4742"/></g></svg>