<svg xmlns="http://www.w3.org/2000/svg" viewBox="0 0 640.01 199.3"><title>lett-footer</title><g id="exclam"><path d="M611,111.8a4.34,4.34,0,0,1-4.08-1.68,9.15,9.15,0,0,1-2.08-4.64,10.55,10.55,0,0,1,.56-5.28,6.25,6.25,0,0,1,3.84-3.76c2.35-.74,4.19-.43,5.52,1a8.59,8.59,0,0,1,2.32,5.2,10.39,10.39,0,0,1-1.2,6A5.8,5.8,0,0,1,611,111.8ZM631.51,18a3.79,3.79,0,0,1,2.8-1.12,7.16,7.16,0,0,1,3,.64,5.08,5.08,0,0,1,2.16,1.92,3.38,3.38,0,0,1,.32,2.88q-.65,2.4-2.08,7t-3.44,10.32c-1.34,3.84-2.77,7.92-4.32,12.24s-3.12,8.59-4.72,12.8-3.18,8.21-4.72,12-2.91,7-4.08,9.68c-.43,1-1,1.34-1.76,1.12a2.39,2.39,0,0,1-1.6-1.6,50.24,50.24,0,0,1-.8-10.4,79.46,79.46,0,0,1,1-9.92c.53-3,1.41-6.83,2.64-11.52s2.67-9.44,4.32-14.24a119.06,119.06,0,0,1,5.44-13.28Q628.63,20.45,631.51,18Z"/></g><g id="viagem"><path d="M258.24,116.6a45.85,45.85,0,0,1-4.8-8.16,58.27,58.27,0,0,1-3.36-9.12,150,150,0,0,1-.16-39.76,232.89,232.89,0,0,1,8.32-38c.64-1.38,2-2.08,4.16-2.08a15.52,15.52,0,0,1,6.4,1.44,15.08,15.08,0,0,1,5.28,3.84,4.43,4.43,0,0,1,1,5A67.82,67.82,0,0,0,271.52,40q-1.77,6.48-3.36,14.32t-2.8,16.4q-1.2,8.56-1.76,16.4a114.51,114.51,0,0,0-.24,14.16,29.21,29.21,0,0,0,1.92,10A214.21,214.21,0,0,0,279,90.44q6.24-10.8,11.76-21.92T301.28,46q5-11.35,9.76-22.4,2.4-5.59,4.72-11.84a35,35,0,0,1,6.16-10.72c1.06-1,1.89-1.28,2.48-1A2.67,2.67,0,0,1,325.6,2a12.77,12.77,0,0,1,.32,2.88V7.16Q324.8,14.53,324,21.72a57.06,57.06,0,0,1-3.36,13.92q-4.17,10.56-8.56,21t-9.44,20.48q-5,10.08-10.88,19.6A183.16,183.16,0,0,1,279,114.84q-5.44,6.89-10.8,7.28C264.66,122.39,261.33,120.54,258.24,116.6Z"/><path d="M327.2,64.12c.32.75.85.75,1.6,0a34.12,34.12,0,0,0,5.36-7,10.73,10.73,0,0,0,1.2-8.32,3.35,3.35,0,0,0-1.44-1.68,9.36,9.36,0,0,0-2.08-1,4.88,4.88,0,0,0-3.92.88,6.19,6.19,0,0,0-2.8,3.44,13.2,13.2,0,0,0-.64,7A18,18,0,0,0,327.2,64.12Z"/><path d="M609.75,89.56q-.79-1-8.64,5.28c-1.81,1.49-3.92,3.31-6.32,5.44s-4.72,4.16-7,6.08a63.61,63.61,0,0,1-6,4.64c-1.76,1.18-3,1.49-3.76,1a27,27,0,0,1,.72-7.52,56.31,56.31,0,0,1,2.32-7.36q1.44-3.67,3.2-7.44T588,81.88a20,20,0,0,0-.72-6.48,14.56,14.56,0,0,0-2.64-5.28,9,9,0,0,0-4.16-3,7.63,7.63,0,0,0-5.28.32,55.66,55.66,0,0,0-12.16,7A89.05,89.05,0,0,0,552.15,84a32.51,32.51,0,0,0,.8-5.76,12.76,12.76,0,0,0-1.12-5.92,5.81,5.81,0,0,0-3.36-3.52,4.55,4.55,0,0,0-4.32.64q-4.32,5.44-8.88,11T526.07,91q.64-3,1.44-6.24c.53-2.13,1-4.27,1.44-6.4a9,9,0,0,0-.24-5.28,6,6,0,0,0-2.4-3,4,4,0,0,0-3.12-.48A3.19,3.19,0,0,0,521,72c-.64,1.81-1.31,3.87-2,6.16s-1.41,4.64-2.16,7c-.2.65-.38,1.27-.58,1.92-.42.44-.87.89-1.34,1.36q-1.61,1.44-4,3.68l-5,4.64q-2.55,2.4-5.12,4.56t-4.64,3.6q-1.75,1-4.64,2.24a17.74,17.74,0,0,1-5.68,1.52,6.87,6.87,0,0,1-4.56-1c-1.17-.8-1.6-2.58-1.28-5.36a7.06,7.06,0,0,1,1.76-3.92,35.5,35.5,0,0,1,4.16-4.56c1.6-1.49,3.26-2.93,5-4.32s3-2.51,4-3.36A18.46,18.46,0,0,0,499,81a23.1,23.1,0,0,0,1.84-6,7.48,7.48,0,0,0-1-6.24,8.56,8.56,0,0,0-5.2-3.36,19.92,19.92,0,0,0-11.44,3.68,28.91,28.91,0,0,0-8.08,9,45.58,45.58,0,0,0-4.65,11.55l-3.19,1.81c-2.13,1.28-4.59,2.64-6.88,4.08s-3.88,3-6.88,4.56v-1.6c0-2.13-.11-4.16-.16-6.08s-.06-3.84-.28-5.76a2.44,2.44,0,0,0-2.18-2.24,11.46,11.46,0,0,0-4.21.16,25.16,25.16,0,0,0-7.57,3,58.12,58.12,0,0,0-5.76,4.08q-3.36,2.64-6.48,5a52.43,52.43,0,0,1-5.76,3.92c-1.76,1-3,1.2-3.6.56a11,11,0,0,1,0-5.28,20.88,20.88,0,0,1,2.64-6.72,19.55,19.55,0,0,1,5.44-5.84,14,14,0,0,1,8.4-2.48c1.07,0,2.22,0,3.44.16s2.43.27,3.6.48q4.17.48,2.56-3a4,4,0,0,0-1.84-2.4,32,32,0,0,0-3.12-1.6,25,25,0,0,0-17.6-.64,17.93,17.93,0,0,0-9.44,6.4A26.59,26.59,0,0,0,408.66,85a52.17,52.17,0,0,0-3.86,4.12q-2.88,3.36-6.17,7c-2.18,2.46-4.4,4.77-6.64,7a21.12,21.12,0,0,1-6.4,4.56c-2.56,1-4.32,1-5.28.16s-1.28-2.66-1-5.44a22.47,22.47,0,0,1,2.32-6.24c1.23-2.35,2.22-4.37,3-6.08A5.73,5.73,0,0,0,385,86,6.87,6.87,0,0,0,383,82.6a5.8,5.8,0,0,0-7.76-.08c-.1.11-.82,1-2.16,2.8s-2.9,3.79-4.72,6.08-3.73,4.61-5.76,7a46.85,46.85,0,0,1-5.44,5.52c-1.6,1.33-2.77,1.92-3.52,1.76s-.79-1.63-.16-4.4a41.43,41.43,0,0,1,3.2-7.6,84.46,84.46,0,0,1,6.09-10.08,61.46,61.46,0,0,1,7.35-8.8C372.63,72.25,374.93,71,377,71a3.52,3.52,0,0,1,2.32.72,5.35,5.35,0,0,1,1.36,1.6,8.16,8.16,0,0,1,.72,1.76c.16.59.3,1,.41,1.36.31.64.63.93,1,.88a2,2,0,0,0,1-.72,5.85,5.85,0,0,0,1-1.6c.26-.64.5-1.28.71-1.92a6.47,6.47,0,0,0-.48-4.72,9.82,9.82,0,0,0-3.19-3.6,11.32,11.32,0,0,0-4.88-1.84,14,14,0,0,0-5.37.24,24.58,24.58,0,0,0-13.12,7.36,51.23,51.23,0,0,0-9,13.12c-.47,1-.91,2.06-1.34,3.09q-4.24,4.68-8.57,9.31-5.92,6.31-12.48,13a36.79,36.79,0,0,1-4.32,3.84c-1.07.75-1.5.32-1.28-1.28a28.27,28.27,0,0,1,.8-3.68q.63-2.4,1.44-5l1.52-5c.48-1.6.82-2.83,1-3.68q.79-2.72,1.44-5.2t1.44-5.2a10.11,10.11,0,0,0,.24-5.76,13.32,13.32,0,0,0-2.24-4.88,7.33,7.33,0,0,0-3.44-2.64,3.07,3.07,0,0,0-3.36.8A26.09,26.09,0,0,0,318.08,76a129.61,129.61,0,0,0-4.72,16.72,66.93,66.93,0,0,0-1.52,18,10,10,0,0,0,1.52,5.36,13.4,13.4,0,0,0,4.24,4.24,4.24,4.24,0,0,0,2.16.8,10.18,10.18,0,0,0,2.8-.08,16.67,16.67,0,0,0,2.8-.72,7.75,7.75,0,0,0,2.16-1.12,38.9,38.9,0,0,0,4.16-4.16,49.23,49.23,0,0,0,4.32-4.72q2.72-3.27,5.68-7.2L344,100c-.12.54-.23,1.07-.34,1.6a21.13,21.13,0,0,0,.17,4.32,6.77,6.77,0,0,0,1.75,4.16,18.88,18.88,0,0,0,3,2.48,9.23,9.23,0,0,0,3.52,1.36,11.42,11.42,0,0,0,4.88-.08,20.43,20.43,0,0,0,4.4-1.6,22.6,22.6,0,0,0,3.84-2.4l3.2-2.48a15.55,15.55,0,0,0,1.76,4.8,11.1,11.1,0,0,0,8,5.52,11.94,11.94,0,0,0,5.76-.72,38.15,38.15,0,0,0,9.52-5.2,48.21,48.21,0,0,0,8-7.52,61.38,61.38,0,0,0,4.31-5.74,17.07,17.07,0,0,0,.81,4.14,11.42,11.42,0,0,0,3,4.64,10.74,10.74,0,0,0,5.76,2.64,20.31,20.31,0,0,0,8-.64,44.24,44.24,0,0,0,7.84-3,55.84,55.84,0,0,0,7.44-4.48c2.4-1.71,4.67-3.41,6.8-5.12.86-.85,1.39-.88,1.6-.08a8.63,8.63,0,0,1,.08,3.2,30.65,30.65,0,0,1-.8,4.16,6.58,6.58,0,0,1-1.2,2.8q-7,6.07-13.76,12.56a171.59,171.59,0,0,0-12.72,13.68,154.26,154.26,0,0,0-11.2,15.28,123.7,123.7,0,0,0-9.2,17.2,60.88,60.88,0,0,0-2.72,7.52,38,38,0,0,0-1.52,8.72,26,26,0,0,0,.88,8.4,13.9,13.9,0,0,0,4.48,6.88,9.31,9.31,0,0,0,4.4,2.16,15.87,15.87,0,0,0,4.72.08,48.5,48.5,0,0,0,16.4-14.4,104.15,104.15,0,0,0,11.6-20.4,194.91,194.91,0,0,0,8.24-23q3.45-11.85,6.64-22.24a42.55,42.55,0,0,1,1.84-5.92,16,16,0,0,1,3.6-5.12q3.52-3.2,6.48-5.68c1.82-1.52,3.76-3.31,5.8-5.33a40.8,40.8,0,0,0-.12,5.73c0,5.34,1.58,9.17,4.72,11.52s7.17,3.36,12.08,3a24.32,24.32,0,0,0,8.08-2.8,49.2,49.2,0,0,0,7.52-5.12,69.73,69.73,0,0,0,6.88-6.48c1.74-1.86,3.37-3.64,4.94-5.37-.07.3-.15.6-.22.89a26.8,26.8,0,0,0-.64,4.4,31.72,31.72,0,0,0,0,6.32,15.75,15.75,0,0,0,.56,2.16,5.61,5.61,0,0,0,1.12,2,2.89,2.89,0,0,0,1.68,1,2.86,2.86,0,0,0,2.24-1q5.6-7.68,11.44-15.36t12.56-15.2c-.21.86-.48,2.37-.8,4.56a54.69,54.69,0,0,0-.56,6.72,30.59,30.59,0,0,0,.4,6.08c.32,1.76,1,2.64,2.08,2.64a3.74,3.74,0,0,0,1.52-.4,11.86,11.86,0,0,0,2.64-2l9.12-8.8q5-4.8,9.44-8.64t7.6-6q3.12-2.16,3.6-.88-1.92,3.69-4.16,8a88.51,88.51,0,0,0-4,8.88,65.15,65.15,0,0,0-2.8,9.2,26.4,26.4,0,0,0-.56,8.8,9.18,9.18,0,0,0,2.24,5.36,11.79,11.79,0,0,0,4.56,3.2,13.54,13.54,0,0,0,5.36,1,8.76,8.76,0,0,0,4.8-1.52,74.4,74.4,0,0,0,12.08-10.24q5.68-5.92,10.8-12Q610.55,90.52,609.75,89.56Zm-122-12.64a18.06,18.06,0,0,1,6.8-4.16,15.4,15.4,0,0,1-4.08,6.48,65,65,0,0,1-6.32,5.2A15.61,15.61,0,0,1,487.75,76.92Zm-51.44,51.92c-1.17,3.14-2.53,6.51-4.08,10.08s-3.09,7-4.64,10.24-2.69,5.62-3.44,7.12c-1,1.92-2.18,4.4-3.68,7.44s-3.17,6.16-5,9.36a71.43,71.43,0,0,1-6,8.8,20.1,20.1,0,0,1-6.4,5.6,23.4,23.4,0,0,1-.56-8.72,54.33,54.33,0,0,1,2-8.88,73.72,73.72,0,0,1,6.08-13.36,117.08,117.08,0,0,1,8.08-12.08q4.41-5.76,9.44-11.28t10-11A22.65,22.65,0,0,1,436.31,128.84Z"/></g><g id="boa"><path d="M55.84,51.16a6.09,6.09,0,0,0,1.76-.24,6.09,6.09,0,0,1,1.76-.24,27.86,27.86,0,0,0,10.8-2.56,51.58,51.58,0,0,0,11-6.4,36,36,0,0,0,8.16-8.48q3.12-4.64,2.32-9a15.83,15.83,0,0,0-6.8-7.52,28.29,28.29,0,0,0-10.64-3.28,52.14,52.14,0,0,0-12.88.16,97.86,97.86,0,0,0-13.44,2.72,86.12,86.12,0,0,0-12.48,4.48,51.76,51.76,0,0,0-9.68,5.52c-1.17.43-1.84.13-2-.88a9.09,9.09,0,0,1,.32-3.68,23.62,23.62,0,0,1,1.6-4.32,15.92,15.92,0,0,1,1.84-3.12A18.16,18.16,0,0,1,32.8,7.8a28.06,28.06,0,0,1,7-3.84A59.07,59.07,0,0,1,55.52,1.08,83.63,83.63,0,0,1,74.4,2a58,58,0,0,1,17,5.36Q99,11.16,101.76,17.88a23.79,23.79,0,0,1,.88,10.32,27.91,27.91,0,0,1-3,9.36,34.26,34.26,0,0,1-6,8,45.68,45.68,0,0,1-8,6.4,2.6,2.6,0,0,1-.64.48l-1,.48q2.72,1.13,5.12,2.16a21.24,21.24,0,0,1,4.64,2.8,20.13,20.13,0,0,1,4.64,5,17.75,17.75,0,0,1,2.56,6,21.88,21.88,0,0,1,.64,10.48,48.72,48.72,0,0,1-2.72,9.52,69.13,69.13,0,0,1-5.68,9.36A41.77,41.77,0,0,1,86.08,106a71.59,71.59,0,0,1-22.48,17A86.47,86.47,0,0,1,37,130.84a81.66,81.66,0,0,1-9-.16,25.46,25.46,0,0,1-7.68-1.76,20.68,20.68,0,0,1-6.4-4.16A24.81,24.81,0,0,1,8.8,117.4a71.68,71.68,0,0,1-5.52-9.84,36.25,36.25,0,0,1-3-10A19.92,19.92,0,0,1,1,88.28,16.32,16.32,0,0,1,6.72,80.6,53.64,53.64,0,0,1,13,75.72a20.22,20.22,0,0,1,7.44-3l1.36-.56A3.45,3.45,0,0,1,23.2,72h.48a8.55,8.55,0,0,0-1.28,1.6,6.45,6.45,0,0,1-1,1.28,71.33,71.33,0,0,0-5.28,7.52A37,37,0,0,0,12.24,91a27.13,27.13,0,0,0-1.2,9,14.92,14.92,0,0,0,2.72,8.16A15.51,15.51,0,0,0,19.12,113a20.73,20.73,0,0,0,6.72,2.24,32.78,32.78,0,0,0,7.28.32q3.68-.24,7-.72a60.68,60.68,0,0,0,19.76-7.36,83.41,83.41,0,0,0,16.4-12.8q1.92-2.24,4.08-5t4-5.76a47.12,47.12,0,0,0,3.2-6.08,25.44,25.44,0,0,0,1.84-6,13.24,13.24,0,0,0-3-6.8,10.86,10.86,0,0,0-5.84-3.12,35,35,0,0,0-8.88-.56q-5.2.24-11.92.88a43.06,43.06,0,0,1-4.64.4c-1.6.06-3.2.19-4.8.4-.11,0-.27.11-.48.32a.47.47,0,0,1-.32.16Q44.49,73.08,39.84,83a92.88,92.88,0,0,1-11.36,18.4c-.22.32-.72,1-1.52,2.16a24.16,24.16,0,0,1-2.56,3,5.26,5.26,0,0,1-2.64,1.6c-.86.16-1.39-.56-1.6-2.16a8.38,8.38,0,0,1-.64-4.24,35.33,35.33,0,0,1,.8-5.52,53,53,0,0,1,1.52-5.52c.58-1.76,1-3.12,1.36-4.08Q24,83.8,24.8,81a50.82,50.82,0,0,1,1.92-5.52q3.53-7,6.64-13.92T40.16,48q1.92-4.16,3.92-8.16c1.33-2.66,2.69-5.28,4.08-7.84a4.48,4.48,0,0,1,3.68-2.32,7,7,0,0,1,4.24,1.28,11.29,11.29,0,0,1,3.36,3.68,8,8,0,0,1,1,5,34.75,34.75,0,0,1-2.08,6C57.55,47.51,56.69,49.35,55.84,51.16Z"/><path d="M221.68,83.72c-.06-.37-.35-.67-.88-.88q-.48-.32-1.2.24a12.49,12.49,0,0,0-1.2,1,44.09,44.09,0,0,0-4.8,5q-2.88,3.36-6.16,7c-2.19,2.46-4.4,4.77-6.64,7a21.37,21.37,0,0,1-6.4,4.56c-2.56,1-4.32,1-5.28.16s-1.28-2.66-1-5.44a22.16,22.16,0,0,1,2.32-6.24c1.22-2.35,2.21-4.37,3-6.08a5.78,5.78,0,0,0,.4-4.08,7,7,0,0,0-2.08-3.36,6,6,0,0,0-3.6-1.52A6,6,0,0,0,184,82.52c-.11.11-.83,1-2.16,2.8s-2.91,3.79-4.72,6.08-3.74,4.61-5.76,7a48.46,48.46,0,0,1-5.44,5.52c-1.6,1.33-2.78,1.92-3.52,1.76s-.8-1.63-.16-4.4a40,40,0,0,1,3.2-7.6,83.06,83.06,0,0,1,6.08-10.08,61.5,61.5,0,0,1,7.36-8.8Q182.72,71,185.76,71a3.56,3.56,0,0,1,2.32.72,5.5,5.5,0,0,1,1.36,1.6,8.16,8.16,0,0,1,.72,1.76c.16.59.29,1,.4,1.36.32.64.64.93,1,.88a1.92,1.92,0,0,0,1-.72,5.85,5.85,0,0,0,1-1.6q.39-1,.72-1.92a6.57,6.57,0,0,0-.48-4.72,9.94,9.94,0,0,0-3.2-3.6,11.32,11.32,0,0,0-4.88-1.84,13.89,13.89,0,0,0-5.36.24,24.54,24.54,0,0,0-13.12,7.36,50.57,50.57,0,0,0-7.65,10.57c-.72.22-1.44.45-2.19.71-1.66.59-3.23,1.09-4.72,1.52-1.28.32-2.67.75-4.16,1.28a16.46,16.46,0,0,1-4.16,1q.15-1,.48-2.88a18.78,18.78,0,0,0,.16-4.24,20.42,20.42,0,0,0-1-4.8,12.36,12.36,0,0,0-2.72-4.56,11.25,11.25,0,0,0-5.2-3.68,13.22,13.22,0,0,0-6.48-.32,16.58,16.58,0,0,0-9.84,4.72,38.81,38.81,0,0,0-7,8.88,12.9,12.9,0,0,0-1.44,3.52c-.32,1.28-.64,2.51-1,3.68a1.6,1.6,0,0,1-.72.64c-.27.11-.51.21-.72.32a2.14,2.14,0,0,0-.64.56,3.48,3.48,0,0,0-.48,1.52,48.06,48.06,0,0,0-1.12,6.16,40.84,40.84,0,0,0-.24,7.68,26.35,26.35,0,0,0,1.44,7.28,9.6,9.6,0,0,0,3.6,5,11.88,11.88,0,0,0,7.68,2.56q3.19,0,6.64-2.88a45.07,45.07,0,0,0,6.56-6.88,83.31,83.31,0,0,0,5.68-8.24c1.7-2.83,3-5.09,4-6.8A32.85,32.85,0,0,1,149.2,90a44.81,44.81,0,0,0,7.43-2.65q-1.06,2.65-1.91,5.37a81.34,81.34,0,0,0-2.24,8.8,21,21,0,0,0,.16,4.32A6.78,6.78,0,0,0,154.4,110a18.45,18.45,0,0,0,3,2.48,9.1,9.1,0,0,0,3.52,1.36,11.43,11.43,0,0,0,4.88-.08,20.82,20.82,0,0,0,4.4-1.6,23.42,23.42,0,0,0,3.84-2.4l3.2-2.48a15.06,15.06,0,0,0,1.76,4.8,11.1,11.1,0,0,0,8,5.52,12,12,0,0,0,5.76-.72,38.5,38.5,0,0,0,9.52-5.2,48.61,48.61,0,0,0,8-7.52A63.23,63.23,0,0,0,216.8,95a80.36,80.36,0,0,0,5-10.08A9.06,9.06,0,0,0,221.68,83.72Zm-90.08,16a42.86,42.86,0,0,1-3.2,5.2,36.9,36.9,0,0,1-3.84,4.56,7.73,7.73,0,0,1-3.6,2.32,11,11,0,0,1-1.28-3.52,31.61,31.61,0,0,1-.64-4.72,34.94,34.94,0,0,1,0-4.8,15.24,15.24,0,0,1,.64-3.76,34.75,34.75,0,0,0,6.88.64q3.67,0,6.88-.32A24.36,24.36,0,0,1,131.6,99.72Zm4.56-13.52a.94.94,0,0,1-.32.64,1,1,0,0,1-.64.32,25,25,0,0,0-3,.32,37.86,37.86,0,0,1-4.48.4,34.61,34.61,0,0,1-4.16-.08c-1.23-.1-1.84-.43-1.84-1a3.79,3.79,0,0,0-1.44-3.2,1.53,1.53,0,0,1-.32-1.12q1.75-2.72,3.68-5.28a17.48,17.48,0,0,1,5.12-4.48,6.11,6.11,0,0,1,3.36-.64A4.23,4.23,0,0,1,135,73.56a8.31,8.31,0,0,1,2.32,5.92A16.32,16.32,0,0,1,136.16,86.2Z"/></g></svg>